<svg width="24" height="24" viewBox="0 0 24 24" fill="none" xmlns="http://www.w3.org/2000/svg">
<path d="M4.25 21V16.5M4.25 7.5V3M2 5.25H6.5M2 18.75H6.5" stroke="#FFD042" stroke-width="2" stroke-linecap="round" stroke-linejoin="round"/>
<path d="M14.1 20.2L12.5392 16.142C12.2854 15.4821 12.1585 15.1522 11.9612 14.8746C11.7863 14.6286 11.5714 14.4137 11.3254 14.2388C11.0478 14.0415 10.7179 13.9146 10.058 13.6608L6 12.1L10.058 10.5392C10.7179 10.2854 11.0478 10.1585 11.3254 9.96118C11.5714 9.78627 11.7863 9.57136 11.9612 9.32538C12.1585 9.04784 12.2854 8.71788 12.5392 8.05798L14.1 4L15.6608 8.05798C15.9146 8.71788 16.0415 9.04784 16.2388 9.32538C16.4137 9.57136 16.6286 9.78627 16.8746 9.96118C17.1522 10.1585 17.4821 10.2854 18.142 10.5392L22.2 12.1L18.142 13.6608C17.4821 13.9146 17.1522 14.0415 16.8746 14.2388C16.6286 14.4137 16.4137 14.6286 16.2388 14.8746C16.0415 15.1522 15.9146 15.4821 15.6608 16.142L14.1 20.2Z" fill="#1D3BAF" stroke="#1D3BAF" stroke-width="2" stroke-linecap="round" stroke-linejoin="round"/>
</svg>
